<svg xmlns="http://www.w3.org/2000/svg" version="1.1" xmlns:xlink="http://www.w3.org/1999/xlink" xmlns:svgjs="http://svgjs.com/svgjs" width="512" height="512" x="0" y="0" viewBox="0 0 512 512" style="enable-background:new 0 0 512 512" xml:space="preserve" class=""><g>
<path xmlns="http://www.w3.org/2000/svg" style="" d="M453.319,85.089c0-18.661-15.129-33.788-33.79-33.788h-21.994c-13.607,0-282.563,0-291.552,0  c-8.235,0-61.508,0-72.194,0C15.13,51.301,0,66.429,0,85.089v385.738c0,9.658,4.059,18.362,10.556,24.52h408.973v9.269h59.186  c14.542,0,26.938-9.188,31.702-22.076C514.365,472.105,515.761,492.056,453.319,85.089z" fill="#bababa" data-original="#bababa"></path>
<path xmlns="http://www.w3.org/2000/svg" style="" d="M473.952,470.828v-251.26L453.319,85.089c0-18.661-15.129-33.788-33.79-33.788  c-11.063,0-277.506,0-292.912,0h-20.633h-8.253c-19.112,0-12.683,0-43.307,0c-18.659,0-33.789,15.127-33.789,33.788v385.738  c0,9.658,4.059,18.362,10.556,24.52h388.34v9.269h20.633C458.823,504.617,473.952,489.49,473.952,470.828z" fill="#a8a8a8" data-original="#a8a8a8"></path>
<path xmlns="http://www.w3.org/2000/svg" style="" d="M419.529,51.301c-11.824,0-294.074,0-313.546,0c-11.658,0-64.312,0-72.194,0  C15.13,51.301,0,66.429,0,85.089v385.738c0,18.662,15.13,33.789,33.789,33.789h385.739c18.661,0,33.79-15.127,33.79-33.789V85.089  C453.319,66.429,438.189,51.301,419.529,51.301z" fill="#e6e6e6" data-original="#e6e6e6"></path>
<path xmlns="http://www.w3.org/2000/svg" style="" d="M20.633,470.828V85.089c0-18.661,15.13-33.788,33.789-33.788c-11.63,0-8.966,0-20.633,0  C15.13,51.301,0,66.429,0,85.089v385.738c0,18.662,15.13,33.789,33.789,33.789h20.633C35.764,504.617,20.633,489.49,20.633,470.828z  " fill="#cccbca" data-original="#cccbca"></path>
<path xmlns="http://www.w3.org/2000/svg" style="" d="M419.529,51.301c-13.424,0-291.141,0-313.546,0c-79.997,0,2.69,0-72.194,0  C15.13,51.301,0,66.429,0,85.089v86.796h453.319V85.089C453.319,66.429,438.189,51.301,419.529,51.301z" fill="#ea473b" data-original="#ea473b"></path>
<path xmlns="http://www.w3.org/2000/svg" style="" d="M20.633,85.089c0-18.661,15.13-33.788,33.789-33.788c-11.63,0-8.966,0-20.633,0  C15.13,51.301,0,66.429,0,85.089v86.796h20.633V85.089z" fill="#d63322" data-original="#d63322"></path>
<g xmlns="http://www.w3.org/2000/svg">
	<path style="" d="M361.837,81.509v7.034c0,6.838-5.542,7.222-12.38,7.222h-4.127c-6.837,0-12.38-0.384-12.38-7.222   V81.51c-6.546,4.568-10.833,12.15-10.833,20.738c0,13.96,11.317,25.276,25.276,25.276   C372.15,127.523,381.984,95.569,361.837,81.509z" fill="#414356" data-original="#414356"></path>
	<path style="" d="M233.91,81.509v7.034c0,6.838-5.542,6.19-12.38,6.19h-4.127c-6.837,0-12.38,0.648-12.38-6.19V81.51   c-6.546,4.568-10.833,12.15-10.833,20.738c0,13.96,11.317,25.276,25.276,25.276c13.96,0,25.276-11.316,25.276-25.276   C244.742,93.66,240.455,86.077,233.91,81.509z" fill="#414356" data-original="#414356"></path>
	<path style="" d="M105.983,81.509v7.034c0,7.972-7.503,7.222-16.507,7.222c-6.837,0-12.38-0.384-12.38-7.222V81.51   c-20.167,14.074-10.282,46.014,14.443,46.014c13.96,0,25.276-11.316,25.276-25.276C116.815,93.66,112.528,86.077,105.983,81.509z" fill="#414356" data-original="#414356"></path>
</g>
<g xmlns="http://www.w3.org/2000/svg">
	<path style="" d="M343.783,102.248c0-0.479,0.018-0.953,0.044-1.425c-6.127-0.743-10.877-5.952-10.877-12.28V81.51   c-6.546,4.568-10.833,12.15-10.833,20.738c0,13.96,11.317,25.276,25.276,25.276c3.877,0,7.549-0.875,10.833-2.436   C349.687,121.031,343.783,112.33,343.783,102.248z" fill="#2f3242" data-original="#2f3242"></path>
	<path style="" d="M215.856,102.248c0-0.479,0.018-0.953,0.044-1.425c-6.127-0.743-10.877-5.952-10.877-12.28V81.51   c-6.546,4.568-10.833,12.15-10.833,20.738c0,13.96,11.317,25.276,25.276,25.276c3.877,0,7.549-0.875,10.833-2.436   C221.76,121.031,215.856,112.33,215.856,102.248z" fill="#2f3242" data-original="#2f3242"></path>
	<path style="" d="M87.973,100.823c-6.127-0.743-10.877-5.952-10.877-12.28V81.51   c-6.546,4.568-10.833,12.15-10.833,20.738c0,18.616,19.444,30.759,36.108,22.84C93.317,120.785,87.387,111.38,87.973,100.823z" fill="#2f3242" data-original="#2f3242"></path>
</g>
<rect xmlns="http://www.w3.org/2000/svg" y="171.881" style="" width="453.32" height="28.887" fill="#f77c79" data-original="#f77c79"></rect>
<rect xmlns="http://www.w3.org/2000/svg" y="171.881" style="" width="20.633" height="28.887" fill="#dd6464" data-original="#dd6464"></rect>
<path xmlns="http://www.w3.org/2000/svg" id="SVGCleanerId_0" style="" d="M93.603,7.385c6.838,0,12.38,5.543,12.38,12.38v68.778  c0,6.838-5.542,12.38-12.38,12.38h-4.127c-6.837,0-12.38-5.542-12.38-12.38V19.765c0-6.837,5.543-12.38,12.38-12.38H93.603z" fill="#585a60" data-original="#585a60"></path>
<path xmlns="http://www.w3.org/2000/svg" id="SVGCleanerId_1" style="" d="M221.53,7.385c6.838,0,12.38,5.543,12.38,12.38v68.778  c0,6.838-5.542,12.38-12.38,12.38h-4.127c-6.837,0-12.38-5.542-12.38-12.38V19.765c0-6.837,5.543-12.38,12.38-12.38H221.53z" fill="#585a60" data-original="#585a60"></path>
<path xmlns="http://www.w3.org/2000/svg" id="SVGCleanerId_2" style="" d="M349.457,7.385c6.838,0,12.38,5.543,12.38,12.38v68.778  c0,6.838-5.542,12.38-12.38,12.38h-4.127c-6.837,0-12.38-5.542-12.38-12.38V19.765c0-6.837,5.543-12.38,12.38-12.38H349.457z" fill="#585a60" data-original="#585a60"></path>
<g xmlns="http://www.w3.org/2000/svg">
	<path id="SVGCleanerId_0_1_" style="" d="M93.603,7.385c6.838,0,12.38,5.543,12.38,12.38v68.778   c0,6.838-5.542,12.38-12.38,12.38h-4.127c-6.837,0-12.38-5.542-12.38-12.38V19.765c0-6.837,5.543-12.38,12.38-12.38H93.603z" fill="#585a60" data-original="#585a60"></path>
</g>
<g xmlns="http://www.w3.org/2000/svg">
	<path id="SVGCleanerId_1_1_" style="" d="M221.53,7.385c6.838,0,12.38,5.543,12.38,12.38v68.778   c0,6.838-5.542,12.38-12.38,12.38h-4.127c-6.837,0-12.38-5.542-12.38-12.38V19.765c0-6.837,5.543-12.38,12.38-12.38H221.53z" fill="#585a60" data-original="#585a60"></path>
</g>
<g xmlns="http://www.w3.org/2000/svg">
	<path id="SVGCleanerId_2_1_" style="" d="M349.457,7.385c6.838,0,12.38,5.543,12.38,12.38v68.778   c0,6.838-5.542,12.38-12.38,12.38h-4.127c-6.837,0-12.38-5.542-12.38-12.38V19.765c0-6.837,5.543-12.38,12.38-12.38H349.457z" fill="#585a60" data-original="#585a60"></path>
</g>
<g xmlns="http://www.w3.org/2000/svg">
	<path style="" d="M91.539,88.543V19.765c0-4.994,2.964-9.286,7.222-11.244c-1.572-0.722-3.315-1.136-5.158-1.136   h-4.127c-6.837,0-12.38,5.543-12.38,12.38v68.778c0,6.838,5.543,12.38,12.38,12.38h4.127c1.844,0,3.587-0.414,5.158-1.136   C94.503,97.83,91.539,93.537,91.539,88.543z" fill="#414356" data-original="#414356"></path>
	<path style="" d="M219.466,88.543V19.765c0-4.994,2.964-9.286,7.222-11.244c-1.572-0.722-3.315-1.136-5.158-1.136   h-4.127c-6.837,0-12.38,5.543-12.38,12.38v68.778c0,6.838,5.543,12.38,12.38,12.38h4.127c1.844,0,3.587-0.414,5.158-1.136   C222.43,97.83,219.466,93.537,219.466,88.543z" fill="#414356" data-original="#414356"></path>
	<path style="" d="M347.393,88.543V19.765c0-4.994,2.964-9.286,7.222-11.244c-1.572-0.722-3.315-1.136-5.158-1.136   h-4.127c-6.837,0-12.38,5.543-12.38,12.38v68.778c0,6.838,5.543,12.38,12.38,12.38h4.127c1.844,0,3.587-0.414,5.158-1.136   C350.357,97.83,347.393,93.537,347.393,88.543z" fill="#414356" data-original="#414356"></path>
</g>
<g xmlns="http://www.w3.org/2000/svg">
	<path style="" d="M168.606,248.179h-25.474c-4.273,0-7.738,3.464-7.738,7.738c0,4.273,3.465,7.738,7.738,7.738h25.474   c4.274,0,7.738-3.464,7.738-7.738C176.344,251.644,172.88,248.179,168.606,248.179z" fill="#585a60" data-original="#585a60"></path>
	<path style="" d="M239.427,248.179H213.95c-4.273,0-7.738,3.464-7.738,7.738c0,4.273,3.465,7.738,7.738,7.738h25.477   c4.274,0,7.738-3.464,7.738-7.738C247.164,251.644,243.701,248.179,239.427,248.179z" fill="#585a60" data-original="#585a60"></path>
	<path style="" d="M310.247,248.179h-25.478c-4.273,0-7.738,3.464-7.738,7.738c0,4.273,3.465,7.738,7.738,7.738h25.478   c4.273,0,7.738-3.464,7.738-7.738C317.985,251.644,314.52,248.179,310.247,248.179z" fill="#585a60" data-original="#585a60"></path>
	<path style="" d="M381.065,248.179h-25.477c-4.273,0-7.738,3.464-7.738,7.738c0,4.273,3.465,7.738,7.738,7.738h25.477   c4.274,0,7.738-3.464,7.738-7.738C388.802,251.644,385.339,248.179,381.065,248.179z" fill="#585a60" data-original="#585a60"></path>
	<path style="" d="M97.789,310.519H72.312c-4.273,0-7.738,3.464-7.738,7.738c0,4.273,3.465,7.738,7.738,7.738h25.477   c4.274,0,7.738-3.464,7.738-7.738C105.526,313.983,102.063,310.519,97.789,310.519z" fill="#585a60" data-original="#585a60"></path>
	<path style="" d="M168.606,310.519h-25.474c-4.273,0-7.738,3.464-7.738,7.738c0,4.273,3.465,7.738,7.738,7.738h25.474   c4.274,0,7.738-3.464,7.738-7.738C176.344,313.983,172.88,310.519,168.606,310.519z" fill="#585a60" data-original="#585a60"></path>
	<path style="" d="M239.427,310.519H213.95c-4.273,0-7.738,3.464-7.738,7.738c0,4.273,3.465,7.738,7.738,7.738h25.477   c4.274,0,7.738-3.464,7.738-7.738C247.164,313.983,243.701,310.519,239.427,310.519z" fill="#585a60" data-original="#585a60"></path>
	<path style="" d="M310.247,310.519h-25.478c-4.273,0-7.738,3.464-7.738,7.738c0,4.273,3.465,7.738,7.738,7.738h25.478   c4.273,0,7.738-3.464,7.738-7.738C317.985,313.983,314.52,310.519,310.247,310.519z" fill="#585a60" data-original="#585a60"></path>
	<path style="" d="M381.065,310.519h-25.477c-4.273,0-7.738,3.464-7.738,7.738c0,4.273,3.465,7.738,7.738,7.738h25.477   c4.274,0,7.738-3.464,7.738-7.738C388.802,313.983,385.339,310.519,381.065,310.519z" fill="#585a60" data-original="#585a60"></path>
	<path style="" d="M97.789,372.859H72.312c-4.273,0-7.738,3.464-7.738,7.738s3.465,7.738,7.738,7.738h25.477   c4.274,0,7.738-3.464,7.738-7.738S102.063,372.859,97.789,372.859z" fill="#585a60" data-original="#585a60"></path>
	<path style="" d="M168.606,372.859h-25.474c-4.273,0-7.738,3.464-7.738,7.738s3.465,7.738,7.738,7.738h25.474   c4.274,0,7.738-3.464,7.738-7.738S172.88,372.859,168.606,372.859z" fill="#585a60" data-original="#585a60"></path>
	<path style="" d="M239.427,372.859H213.95c-4.273,0-7.738,3.464-7.738,7.738s3.465,7.738,7.738,7.738h25.477   c4.274,0,7.738-3.464,7.738-7.738S243.701,372.859,239.427,372.859z" fill="#585a60" data-original="#585a60"></path>
	<path style="" d="M310.247,372.859h-25.478c-4.273,0-7.738,3.464-7.738,7.738s3.465,7.738,7.738,7.738h25.478   c4.273,0,7.738-3.464,7.738-7.738S314.52,372.859,310.247,372.859z" fill="#585a60" data-original="#585a60"></path>
	<path style="" d="M381.065,372.859h-25.477c-4.273,0-7.738,3.464-7.738,7.738s3.465,7.738,7.738,7.738h25.477   c4.274,0,7.738-3.464,7.738-7.738S385.339,372.859,381.065,372.859z" fill="#585a60" data-original="#585a60"></path>
	<path style="" d="M97.789,435.2H72.312c-4.273,0-7.738,3.464-7.738,7.738c0,4.273,3.465,7.738,7.738,7.738h25.477   c4.274,0,7.738-3.464,7.738-7.738C105.526,438.664,102.063,435.2,97.789,435.2z" fill="#585a60" data-original="#585a60"></path>
	<path style="" d="M168.606,435.2h-25.474c-4.273,0-7.738,3.464-7.738,7.738c0,4.273,3.465,7.738,7.738,7.738h25.474   c4.274,0,7.738-3.464,7.738-7.738C176.344,438.664,172.88,435.2,168.606,435.2z" fill="#585a60" data-original="#585a60"></path>
	<path style="" d="M239.427,435.2H213.95c-4.273,0-7.738,3.464-7.738,7.738c0,4.273,3.465,7.738,7.738,7.738h25.477   c4.274,0,7.738-3.464,7.738-7.738C247.164,438.664,243.701,435.2,239.427,435.2z" fill="#585a60" data-original="#585a60"></path>
	<path style="" d="M310.247,435.2h-25.478c-4.273,0-7.738,3.464-7.738,7.738c0,4.273,3.465,7.738,7.738,7.738h25.478   c4.273,0,7.738-3.464,7.738-7.738C317.985,438.664,314.52,435.2,310.247,435.2z" fill="#585a60" data-original="#585a60"></path>
</g>
<g xmlns="http://www.w3.org/2000/svg">
</g>
<g xmlns="http://www.w3.org/2000/svg">
</g>
<g xmlns="http://www.w3.org/2000/svg">
</g>
<g xmlns="http://www.w3.org/2000/svg">
</g>
<g xmlns="http://www.w3.org/2000/svg">
</g>
<g xmlns="http://www.w3.org/2000/svg">
</g>
<g xmlns="http://www.w3.org/2000/svg">
</g>
<g xmlns="http://www.w3.org/2000/svg">
</g>
<g xmlns="http://www.w3.org/2000/svg">
</g>
<g xmlns="http://www.w3.org/2000/svg">
</g>
<g xmlns="http://www.w3.org/2000/svg">
</g>
<g xmlns="http://www.w3.org/2000/svg">
</g>
<g xmlns="http://www.w3.org/2000/svg">
</g>
<g xmlns="http://www.w3.org/2000/svg">
</g>
<g xmlns="http://www.w3.org/2000/svg">
</g>
</g></svg>