<svg xmlns="http://www.w3.org/2000/svg" version="1.1" xmlns:xlink="http://www.w3.org/1999/xlink" xmlns:svgjs="http://svgjs.com/svgjs" width="512" height="512" x="0" y="0" viewBox="0 0 512 512" style="enable-background:new 0 0 512 512" xml:space="preserve" class=""><g>
<g xmlns="http://www.w3.org/2000/svg">
	<g>
		<path d="M326.451,257.092l-33.464-13.014c-3.305-1.285-5.44-4.406-5.44-7.952V219.43c9.825-8.723,16.032-21.435,16.032-35.575    v-3.151c5.248-7.414,8.016-15.967,8.016-24.905c0-24.026-19.546-43.573-43.572-43.573h-24.049    c-24.026,0-43.572,19.547-43.572,43.573c0,8.938,2.768,17.491,8.016,24.905v3.151h0.001c0,14.141,6.207,26.853,16.032,35.575    v16.696c0,3.545-2.135,6.667-5.44,7.952l-33.464,13.014c-15.323,5.958-25.225,20.433-25.225,36.875v66.243    c0,4.142,3.358,7.5,7.5,7.5c4.142,0,7.5-3.358,7.5-7.5v-66.243c0-10.208,6.147-19.195,15.661-22.894l22.928-8.917    c8.149,15.403,24.36,25.392,42.088,25.392c17.841,0,33.964-9.956,42.098-25.388l22.918,8.913    c9.514,3.699,15.661,12.686,15.661,22.894v66.243c0,4.142,3.358,7.5,7.5,7.5c4.142,0,7.5-3.358,7.5-7.5v-66.243    C351.676,277.525,341.775,263.051,326.451,257.092z M223.419,183.856v-16.032c0-4.142-3.358-7.5-7.5-7.5    c-0.045,0-0.088,0.006-0.133,0.007c-0.249-1.49-0.383-3.002-0.383-4.531c0-15.757,12.818-28.574,28.573-28.574h24.049    c15.755,0,28.572,12.818,28.572,28.573c0,1.529-0.134,3.041-0.383,4.531c-0.037-0.001-0.074-0.006-0.111-0.006    c-0.226-0.001-22.912-0.306-52.781-15.24c-3.704-1.854-8.21-0.35-10.062,3.354c-1.853,3.705-0.351,8.21,3.354,10.062    c22.915,11.458,41.978,15.113,51.967,16.279v9.077c0,17.965-14.616,32.581-32.581,32.581    C238.035,216.437,223.419,201.821,223.419,183.856z M256,272.548c-11.658,0-22.347-6.315-28.121-16.155    c7.132-4.178,11.573-11.779,11.573-20.267v-7.664c5.157,1.919,10.731,2.973,16.548,2.973s11.391-1.054,16.548-2.973v7.664    c0,8.489,4.442,16.09,11.574,20.268C278.363,266.249,267.733,272.548,256,272.548z" fill="#000000" data-original="#000000"></path>
	</g>
</g>
<g xmlns="http://www.w3.org/2000/svg">
	<g>
		<path d="M199.887,304.613c-4.142,0-7.5,3.358-7.5,7.5v72.146c0,4.142,3.358,7.5,7.5,7.5c4.142,0,7.5-3.358,7.5-7.5v-72.146    C207.387,307.971,204.029,304.613,199.887,304.613z" fill="#000000" data-original="#000000"></path>
	</g>
</g>
<g xmlns="http://www.w3.org/2000/svg">
	<g>
		<path d="M312.113,304.612c-4.142,0-7.5,3.358-7.5,7.5v72.146c0,4.142,3.358,7.5,7.5,7.5c4.142,0,7.5-3.358,7.5-7.5v-72.146    C319.613,307.97,316.255,304.612,312.113,304.612z" fill="#000000" data-original="#000000"></path>
	</g>
</g>
<g xmlns="http://www.w3.org/2000/svg">
	<g>
		<path d="M256,0c-21.816,0-39.564,17.749-39.564,39.564c0,21.815,17.748,39.565,39.564,39.565    c21.816,0,39.564-17.749,39.564-39.564S277.816,0,256,0z M256,64.129c-13.545,0-24.564-11.02-24.564-24.564S242.455,15,256,15    c13.545,0,24.564,11.02,24.564,24.564C280.564,53.108,269.545,64.129,256,64.129z" fill="#000000" data-original="#000000"></path>
	</g>
</g>
<g xmlns="http://www.w3.org/2000/svg">
	<g>
		<path d="M256,432.871c-21.816,0-39.564,17.749-39.564,39.564S234.184,512,256,512s39.564-17.749,39.564-39.564    S277.816,432.871,256,432.871z M256,497c-13.545,0-24.564-11.02-24.564-24.564s11.02-24.564,24.564-24.564    s24.564,11.02,24.564,24.564S269.545,497,256,497z" fill="#000000" data-original="#000000"></path>
	</g>
</g>
<g xmlns="http://www.w3.org/2000/svg">
	<g>
		<path d="M472.436,216.436c-21.816,0-39.564,17.749-39.564,39.564s17.749,39.564,39.564,39.564S512,277.816,512,256    C512,234.184,494.251,216.436,472.436,216.436z M472.436,280.564c-13.545,0-24.564-11.02-24.564-24.564    s11.02-24.564,24.564-24.564S497,242.455,497,256S485.98,280.564,472.436,280.564z" fill="#000000" data-original="#000000"></path>
	</g>
</g>
<g xmlns="http://www.w3.org/2000/svg">
	<g>
		<path d="M39.565,216.436C17.75,216.436,0,234.184,0,256s17.749,39.564,39.564,39.564S79.129,277.816,79.129,256    S61.38,216.436,39.565,216.436z M39.564,280.564C26.02,280.564,15,269.545,15,256c0-13.545,11.02-24.564,24.564-24.564    c13.544,0,24.565,11.019,24.565,24.564S53.109,280.564,39.564,280.564z" fill="#000000" data-original="#000000"></path>
	</g>
</g>
<g xmlns="http://www.w3.org/2000/svg">
	<g>
		<path d="M469.936,189.652c-21.858-70.556-77.031-125.729-147.587-147.587c-3.957-1.224-8.158,0.987-9.383,4.945    c-1.227,3.956,0.987,8.157,4.944,9.383c65.828,20.394,117.304,71.869,137.697,137.697c0.997,3.218,3.961,5.283,7.162,5.283    c0.735,0,1.483-0.109,2.222-0.338C468.948,197.809,471.161,193.608,469.936,189.652z" fill="#000000" data-original="#000000"></path>
	</g>
</g>
<g xmlns="http://www.w3.org/2000/svg">
	<g>
		<path d="M199.035,47.01c-1.225-3.956-5.428-6.169-9.383-4.945C119.096,63.923,63.923,119.096,42.065,189.652    c-1.226,3.956,0.988,8.158,4.945,9.383c0.739,0.229,1.486,0.338,2.222,0.338c3.2,0,6.165-2.065,7.162-5.283    C76.787,128.262,128.262,76.787,194.09,56.393C198.047,55.167,200.26,50.966,199.035,47.01z" fill="#000000" data-original="#000000"></path>
	</g>
</g>
<g xmlns="http://www.w3.org/2000/svg">
	<g>
		<path d="M194.09,455.607C128.262,435.213,76.787,383.738,56.393,317.91c-1.226-3.957-5.429-6.17-9.383-4.945    c-3.957,1.226-6.17,5.427-4.945,9.383c21.858,70.556,77.031,125.729,147.587,147.587c0.739,0.229,1.486,0.338,2.222,0.338    c3.2,0,6.165-2.065,7.162-5.283C200.261,461.034,198.047,456.833,194.09,455.607z" fill="#000000" data-original="#000000"></path>
	</g>
</g>
<g xmlns="http://www.w3.org/2000/svg">
	<g>
		<path d="M464.99,312.965c-3.955-1.225-8.158,0.988-9.383,4.945c-20.394,65.828-71.869,117.304-137.697,137.697    c-3.957,1.226-6.17,5.427-4.945,9.383c0.997,3.218,3.961,5.283,7.162,5.283c0.735,0,1.483-0.109,2.222-0.338    c70.556-21.858,125.729-77.031,147.587-147.587C471.161,318.392,468.947,314.19,464.99,312.965z" fill="#000000" data-original="#000000"></path>
	</g>
</g>
<g xmlns="http://www.w3.org/2000/svg">
</g>
<g xmlns="http://www.w3.org/2000/svg">
</g>
<g xmlns="http://www.w3.org/2000/svg">
</g>
<g xmlns="http://www.w3.org/2000/svg">
</g>
<g xmlns="http://www.w3.org/2000/svg">
</g>
<g xmlns="http://www.w3.org/2000/svg">
</g>
<g xmlns="http://www.w3.org/2000/svg">
</g>
<g xmlns="http://www.w3.org/2000/svg">
</g>
<g xmlns="http://www.w3.org/2000/svg">
</g>
<g xmlns="http://www.w3.org/2000/svg">
</g>
<g xmlns="http://www.w3.org/2000/svg">
</g>
<g xmlns="http://www.w3.org/2000/svg">
</g>
<g xmlns="http://www.w3.org/2000/svg">
</g>
<g xmlns="http://www.w3.org/2000/svg">
</g>
<g xmlns="http://www.w3.org/2000/svg">
</g>
</g></svg>