<svg width="305" height="305" viewBox="0 0 305 305" fill="none" xmlns="http://www.w3.org/2000/svg">
<g clip-path="url(#clip0_197_1141)">
<path d="M261.334 149.478C255.443 163.699 255.072 181.28 260.963 195.501L266.032 205.431H47.2295C47.2295 205.431 6.49275 182.542 47.2295 141.806L264.143 137.336L261.334 149.478Z" fill="#F1F2F2"/>
<path d="M266.033 205.433H47.2307C47.2307 205.433 6.49523 182.542 47.2307 141.807L264.145 137.335L261.333 149.48C260.031 152.632 258.995 155.945 258.242 159.35H59.6969C52.005 159.35 45.7503 165.604 45.7503 173.29C45.7503 180.982 52.005 187.236 59.6969 187.236H258.316C258.983 190.08 259.865 192.85 260.963 195.502L266.033 205.433Z" fill="#DEE1E1"/>
<path d="M262.72 214.721L62.7187 214.406C38.7579 214.406 18.1805 199.121 18.1805 175.16C18.1805 169.868 17.2589 162.928 18.9941 158.239C25.1136 141.698 41.0279 129.906 59.6969 129.906H264.879C270.284 129.906 274.665 134.288 274.665 139.692C274.665 145.097 270.284 149.478 264.879 149.478H109.592L94.4263 153.038L81.2372 149.478H59.6963C46.5448 149.478 35.8835 160.14 35.8835 173.291C35.8835 186.443 46.5448 197.104 59.6963 197.104H264.878C270.283 197.104 274.664 201.485 274.664 206.89C274.664 207.28 274.641 207.664 274.597 208.042C274.027 212.904 267.735 214.721 262.72 214.721V214.721Z" fill="#B7E546"/>
<path d="M274.595 208.042C274.329 210.281 273.312 212.292 271.8 213.81C270.024 215.58 267.581 216.678 264.879 216.678L163.511 222.753L59.6969 216.678C35.733 216.678 16.309 197.254 16.309 173.29C16.309 167.041 17.629 161.101 20.01 155.735V164.654C20.01 188.618 39.434 208.042 63.3979 208.042H274.595Z" fill="#ABD641"/>
<path d="M109.591 178.008V149.478H89.2567L82.0367 150.203L82.4703 176.774C82.4703 177.643 83.3443 178.239 84.1536 177.922L89.256 176.675L94.9642 174.44C95.2535 174.327 95.5749 174.327 95.8635 174.44L107.908 179.157C108.717 179.473 109.591 178.877 109.591 178.008V178.008Z" fill="#EF5227"/>
<path d="M89.2567 149.48V176.676L82.9218 179.156C82.1138 179.471 81.2379 178.878 81.2379 178.009V149.48H89.2567Z" fill="#D83724"/>
<path d="M233.21 104.994V118.904L232.593 125.072C232.593 127.459 230.656 129.39 228.276 129.39L63.8839 128.773C61.4968 128.773 59.5661 126.843 59.5661 124.455L58.3325 104.994L142.723 100.962L233.21 104.994Z" fill="#FDCD08"/>
<path d="M283.859 105.971C281.304 105.971 279.233 103.9 279.233 101.345V53.3565C279.233 50.8016 281.304 48.7302 283.859 48.7302C286.415 48.7302 288.486 50.8016 288.486 53.3565V101.344C288.486 103.9 286.414 105.971 283.859 105.971Z" fill="#77777F"/>
<path d="M275.591 116.606C271.729 126.124 267.844 135.515 263.982 145.034C261.674 150.724 265.82 156.959 271.913 156.959L279.053 157.576H296.422C302.515 157.576 306.661 151.341 304.353 145.65L296.3 125.8L291.235 116.605H275.591V116.606Z" fill="#FDCD08"/>
<path d="M281.808 129.309C286.884 129.771 292.207 128.438 296.3 125.801L291.969 114.979L284.814 117.118C284.814 117.118 284.814 117.117 284.814 117.116L275.486 115.872C274.308 118.777 272.595 122.902 271.417 125.808C271.417 125.808 271.417 125.808 271.417 125.808C268.734 132.422 266.05 139.037 263.367 145.651C261.06 151.344 265.205 157.574 271.293 157.574H281.163C275.074 157.574 270.929 151.344 273.236 145.651C275.242 140.711 277.245 135.772 279.249 130.833C279.664 129.808 280.707 129.208 281.808 129.309Z" fill="#FAAB18"/>
<path d="M298.098 105.769C298.098 99.4652 294.078 94.1093 288.484 92.1712C287.034 91.6685 284.926 92.5629 283.308 92.5629C275.444 92.5629 270.604 97.8312 270.604 105.769C270.604 113.707 276.487 118.47 284.351 118.47C285.97 118.47 287.034 119.869 288.484 119.367C294.078 117.428 298.098 112.072 298.098 105.769Z" fill="#FDCD08"/>
<path d="M288.484 119.367C287.035 119.872 285.474 120.144 283.858 120.144C275.994 120.144 269.622 113.704 269.622 105.765C269.622 97.8331 275.994 91.3933 283.858 91.3933C285.474 91.3933 287.035 91.6647 288.484 92.1705C282.89 94.1074 278.874 99.4677 278.874 105.765C278.874 112.07 282.89 117.43 288.484 119.367V119.367Z" fill="#FAAB18"/>
<path d="M284.999 58.3028L244.313 72.3876L233.211 71.2489L154.239 103.57C148.753 105.469 142.788 105.469 137.303 103.57L58.3325 72.5091L47.2295 72.3882L6.5415 58.3028C1.89677 56.6948 1.89677 50.1261 6.5415 48.5187L138.846 2.71775C143.331 1.16457 148.209 1.16457 152.695 2.71775L284.999 48.5187C289.643 50.1261 289.643 56.6948 284.999 58.3028V58.3028Z" fill="#868491"/>
<path d="M244.313 68.2128V72.3888L154.237 103.57C148.754 105.469 142.789 105.469 137.299 103.57L47.2295 72.3888V68.2128C47.2295 59.4107 53.515 51.8977 62.1815 50.3371C89.7168 45.4024 117.838 42.9043 145.768 42.9043C173.698 42.9043 201.826 45.4024 229.361 50.3371C233.556 51.0958 237.361 53.304 240.088 56.5671C242.802 59.8054 244.313 63.9505 244.313 68.2128Z" fill="#77777F"/>
<path d="M233.21 68.2128V104.994H60.1829L59.5661 69.4465C59.5661 66.0293 62.0149 63.1055 65.3766 62.501C67.1389 62.1852 67.6694 60.6462 69.4348 60.3507C94.7032 56.1248 120.238 54.0072 145.768 54.0072C173.088 54.0072 200.407 56.4314 227.4 61.2673C229.077 61.5696 230.533 62.4516 231.563 63.6853C232.599 64.919 233.21 66.5042 233.21 68.2128V68.2128Z" fill="#868491"/>
<path d="M233.21 118.904V125.689C233.21 128.076 231.273 130.007 228.892 130.007H62.6503C60.2656 130.007 58.3325 128.074 58.3325 125.689V104.994L63.8839 100.962L69.4354 104.994V115.82C69.4354 117.523 70.8165 118.904 72.5196 118.904H233.21Z" fill="#FAAB18"/>
<path d="M69.4354 60.3544V104.994H58.3325V68.2128C58.3325 64.7956 60.7813 61.8718 64.143 61.2673C65.9071 60.9527 67.6713 60.6443 69.4354 60.3544Z" fill="#77777F"/>
<path d="M277.632 282.129C271.742 267.907 271.742 251.929 277.632 237.708L279.509 229.37H27.28C27.28 229.37 -1.11337 260.238 29.1249 290.475L281.152 292.365L277.632 282.129Z" fill="#F1F2F2"/>
<path d="M281.151 292.363L29.1267 290.475C-1.11647 260.238 27.2824 229.372 27.2824 229.372L280.722 229.84L277.636 237.706C276.494 240.457 275.575 243.269 274.878 246.119H43.3879C35.696 246.119 29.4413 252.374 29.4413 260.06C29.4413 267.751 35.696 274.006 43.3879 274.006H274.952C275.643 276.757 276.538 279.477 277.636 282.13L281.151 292.363Z" fill="#DEE1E1"/>
<path d="M276.903 301.287L48.8592 300.868C24.8984 300.868 3.81755 287.346 3.81755 263.385C3.81755 255.781 1.95781 245.31 5.39479 239.095C12.7875 225.729 27.0301 216.677 43.386 216.677H281.188C286.593 216.677 290.974 221.059 290.974 226.463C290.974 231.868 286.593 236.249 281.188 236.249H222.269L206.873 239.657L193.915 236.249H43.3866C30.2352 236.249 19.5739 246.911 19.5739 260.062C19.5739 273.213 30.2352 283.875 43.3866 283.875H281.188C286.593 283.875 290.974 288.256 290.974 293.661C290.974 294.265 290.92 294.855 290.815 295.429C289.983 299.989 281.704 301.287 276.903 301.287V301.287Z" fill="#EF5227"/>
<path d="M290.817 295.429C290.453 297.427 289.485 299.204 288.109 300.579C286.339 302.349 283.89 303.447 281.188 303.447H43.3879C19.424 303.447 0 284.023 0 260.06C0 251.486 2.48583 243.491 6.78514 236.756V252.041C6.78514 276.005 26.2091 295.429 50.173 295.429H290.817Z" fill="#D83724"/>
<path d="M222.269 265V236.24H203.167L194.694 236.756L195.148 263.766C195.148 264.635 196.023 265.232 196.831 264.915L203.166 263.185L207.642 261.433C207.931 261.319 208.253 261.319 208.541 261.433L220.585 266.149C221.394 266.465 222.269 265.869 222.269 265V265Z" fill="#FDCD08"/>
<path d="M203.167 236.238V263.187L195.598 266.148C194.79 266.462 193.914 265.87 193.914 265V236.238H203.167Z" fill="#FAAB18"/>
</g>
<defs>
<clipPath id="clip0_197_1141">
<rect width="305" height="305" fill="white"/>
</clipPath>
</defs>
</svg>
