<svg xmlns="http://www.w3.org/2000/svg" version="1.1" xmlns:xlink="http://www.w3.org/1999/xlink" xmlns:svgjs="http://svgjs.com/svgjs" width="512" height="512" x="0" y="0" viewBox="0 0 64 64" style="enable-background:new 0 0 512 512" xml:space="preserve" class=""><g><path xmlns="http://www.w3.org/2000/svg" d="M63.28,24.46,53,15.9V9a2,2,0,0,0-4,0v3.56L35.84,1.6a6,6,0,0,0-7.68,0L.72,24.46a2,2,0,0,0,2.56,3.08L30.72,4.67a2,2,0,0,1,2.56,0L56,23.6V58a2,2,0,0,1-2,2H44V38a6,6,0,0,0-6-6H26a6,6,0,0,0-6,6V60H10a2,2,0,0,1-2-2V34a2,2,0,0,0-4,0V58a6,6,0,0,0,6,6H54a6,6,0,0,0,6-6V26.94l.72.6A2,2,0,0,0,62,28a2,2,0,0,0,1.28-3.54ZM24,60V38a2,2,0,0,1,2-2H38a2,2,0,0,1,2,2V60Z" fill="#000000" data-original="#000000" class=""></path><circle xmlns="http://www.w3.org/2000/svg" cx="30" cy="48" r="2" fill="#000000" data-original="#000000" class=""></circle></g></svg>