<svg xmlns="http://www.w3.org/2000/svg" version="1.1" xmlns:xlink="http://www.w3.org/1999/xlink" xmlns:svgjs="http://svgjs.com/svgjs" width="512" height="512" x="0" y="0" viewBox="0 0 511.969 511.969" style="enable-background:new 0 0 512 512" xml:space="preserve" class=""><g>
<path xmlns="http://www.w3.org/2000/svg" style="" d="M221.505,265.971h33.766l-17.835-28.803l-32.791,52.022h-14.911l39.881-62.413  c3.005-4.304,8.93-5.358,13.234-2.353c0.879,0.614,1.648,1.372,2.275,2.243l39.991,62.524h-14.911l-7.023-11.632h-34.165  l-7.444-11.587 M376.508,277.559v-54.216h-12.673v59.555c-0.005,1.672,0.676,3.274,1.883,4.431c1.212,1.24,2.875,1.935,4.608,1.927  h57.605l7.511-11.632h-59.001 M166.979,267.877c12.298,0,22.267-9.969,22.267-22.267c0-12.298-9.969-22.267-22.267-22.267h-55.39  v65.847h12.651v-54.193h41.963c5.886,0,10.657,4.771,10.657,10.657s-4.771,10.657-10.657,10.657h-35.693l37.798,32.879h18.367  l-25.391-21.314H166.979 M33.778,289.191h38.263c18.177-0.472,32.53-15.59,32.059-33.767c-0.454-17.514-14.545-31.604-32.059-32.059  H33.778c-18.177-0.472-33.295,13.881-33.767,32.059c-0.472,18.177,13.881,33.295,32.059,33.767  C32.639,289.205,33.209,289.205,33.778,289.191 M71.177,277.603H34.62c-11.765-0.38-20.995-10.225-20.616-21.99  c0.362-11.232,9.383-20.254,20.616-20.616h36.557c11.765-0.38,21.611,8.85,21.99,20.616c0.38,11.765-8.851,21.61-20.616,21.99  C72.093,277.618,71.635,277.618,71.177,277.603 M311.547,289.191h39.061l7.4-11.588h-45.597c-11.765,0.379-21.61-8.85-21.99-20.616  c-0.379-11.765,8.85-21.611,20.616-21.99c0.458-0.015,0.916-0.015,1.374,0h37.111l7.489-11.632h-45.464  c-18.177-0.472-33.295,13.881-33.767,32.059c-0.472,18.177,13.881,33.295,32.059,33.767  C310.408,289.205,310.978,289.205,311.547,289.191 M466.35,277.603c-9.539,0.004-17.918-6.331-20.516-15.509h54.105l7.444-11.61  h-61.549c2.591-9.183,10.975-15.52,20.516-15.509h37.133l7.422-11.632h-45.42c-18.177,0.472-32.53,15.59-32.059,33.767  c0.454,17.514,14.545,31.604,32.059,32.059h39.061l7.422-11.587h-45.641" fill="#c74634" data-original="#c74634" class=""></path>















</g></svg>