<svg xmlns="http://www.w3.org/2000/svg" version="1.1" xmlns:xlink="http://www.w3.org/1999/xlink" xmlns:svgjs="http://svgjs.com/svgjs" width="512" height="512" x="0" y="0" viewBox="0 0 6.82666 6.82666" style="enable-background:new 0 0 512 512" xml:space="preserve" class=""><g><g xmlns="http://www.w3.org/2000/svg" id="Layer_x0020_1"><g id="_341062360"><path id="_341062912" d="m.818618.68426c-.182764 0-.331508.148618-.331508.331374l.00001181 3.36432c0 .182756.148728.331504.331484.331504l5.18944-.00000787c.182764 0 .331488-.148732.331488-.331492l.00000787-3.36432c0-.182756-.148748-.331374-.3315-.331374h-5.18943zm5.18943 4.16764h-5.18943c-.260173 0-.471957-.211642-.471957-.471941l.00001181-3.36432c0-.260173.21176-.471823.471933-.471823h5.18944c.260173 0 .471937.211654.471937.471823l.00000787 3.36432c0 .260299-.211776.471953-.471945.471945z" fill="#000000" data-original="#000000" class=""></path><path id="_341062816" d="m6.00805 1.01868h.00012205zm-5.18651 3.35835h5.18359v-3.35835h-5.18359zm5.18651.140449h-5.18943c-.0758346 0-.137535-.061689-.137535-.137524l.00000787-3.36432c0-.0758346.061685-.137402.137516-.137402l5.18944-.00000394c.0758307 0 .137516.0615748.137516.137406l.00001181 3.36432c0 .0758346-.0617008.137531-.137528.137528z" fill="#000000" data-original="#000000" class=""></path><path id="_341062648" d="m3.78146 5.96477h-.73626c-.0387638 0-.0702283-.0314528-.0702283-.0702244l.00000394-1.11287c0-.0387677.0314528-.0702165.0702205-.0702165.0387756-.00000787.0702244.0314488.0702244.0702244l.00000394 1.04264h.595811v-1.04265c0-.0387677.0314567-.0702165.0702244-.0702165.0387756-.00000787.0702244.0314488.0702244.0702244v1.11286c0 .0387677-.0314528.0702244-.0702244.0702244z" fill="#000000" data-original="#000000" class=""></path><path id="_341062792" d="m1.97586 6.28285c-.0201181 0-.039748-.00877559-.0534094-.024622l-.276744-.324063c-.0153622-.0180472-.0206102-.0425433-.0139055-.0653425.00658268-.0228071.0243858-.0406024.0470591-.0474291l1.34598-.406476c.0371811-.0110945.076311.00987795.0875315.0469409.0112205.037185-.00975591.0763189-.0469409.0875394l-1.24307.375382.177264.2075 1.02558-.305039c.037185-.0110906.076185.010126.0872835.047311.0110984.037185-.010122.0763228-.0473071.0872953l-1.06921.318083c-.00670472.00194882-.0134213.0029252-.020122.00292126z" fill="#000000" data-original="#000000" class=""></path><path id="_341063056" d="m4.85069 6.28285c-.00658268 0-.0134173-.00097244-.0200039-.00292126l-1.0692-.318091c-.0371969-.0109724-.0584134-.0501024-.047315-.0872874.0111024-.037189.0501063-.0583976.0872913-.0473031l1.02559.305031.177264-.2075-1.24307-.375386c-.037185-.0112205-.0581654-.0503504-.0469488-.0875354.0112205-.0370669.0503543-.0580315.0874173-.046937l1.3461.406469c.022685.00683071.0404724.0246339.0470551.0474331.0067126.0227913.00146457.0472992-.0138976.0653425l-.276874.324059c-.0135236.0158465-.0331614.0246299-.0533937.024626z" fill="#000000" data-original="#000000" class=""></path><path id="_341062744" d="m1.58267 3.30098c-.259929 0-.471461-.211524-.471461-.471453l.00000787-.664575c0-.0387717.0314488-.0702244.0702165-.0702244.0387835 0 .0702244.0314528.0702244.0702283l.00000787.664571c0 .182508.148492.331008.331.331008.0537677-.00000394.105217-.0126811.152764-.0376732.109858-.0577953.178122-.170193.178122-.293335l.00001181-.664575c0-.0387717.0314449-.0702244.0702126-.0702244.0387717 0 .0702283.0314528.0702283.0702283l.00000787.664571c0 .175563-.0970551.33552-.253236.417571-.0669173.0352283-.142402.0538858-.218106.0538819z" fill="#000000" data-original="#000000" class=""></path><path id="_341062768" d="m2.93596 3.30098c-.0236575 0-.0468228-.0119409-.0599921-.0336457l-.649087-1.06581c-.0202323-.0331614-.00975591-.0764409.0234016-.0965591.0331732-.0201142.0763228-.00962598.0965591.0234134l.649094 1.0658c.020122.0331693.00962992.0763268-.0235315.096563-.0113346.00694488-.0240157.0102402-.0364449.0102362z" fill="#000000" data-original="#000000" class=""></path><path id="_341063032" d="m2.28676 3.30098c-.0124409 0-.0250079-.00328346-.0364685-.0102362-.0331535-.0202402-.0436457-.0633937-.0234055-.0965591l.649102-1.0658c.0201063-.0330433.0633858-.0435276.0964252-.0234134.0331614.0201181.0436457.0634016.0235315.0965591l-.649083 1.0658c-.0132913.0217047-.0364646.0336535-.0601024.0336496z" fill="#000000" data-original="#000000" class=""></path><path id="_341062168" d="m5.37762 3.30147c-.0387756 0-.0702323-.0314488-.0702323-.0702205l.00000787-1.06678c0-.0387677.0314449-.0702205.0702165-.0702205.0387677-.00000394.0702244.0314528.0702244.0702244l.00000787 1.06678c0 .0387717-.0314646.0702283-.0702244.0702244z" fill="#000000" data-original="#000000" class=""></path><path id="_341062024" d="m5.64523 2.23469h-.535094c-.0387756 0-.0702402-.0314528-.0702402-.0702205.00001575-.0387717.0314567-.0702244.0702244-.0702244l.53511-.00000394c.0387598 0 .0702126.0314567.0702126.0702283.00001181.0387638-.0314528.0702244-.0702126.0702205z" fill="#000000" data-original="#000000" class=""></path><path id="_341061880" d="m5.64523 3.30147h-.535094c-.0387756 0-.0702402-.0314488-.0702402-.0702205.00001575-.0387717.0314567-.0702244.0702244-.0702244l.53511-.00000394c.0387598 0 .0702126.0314606.0702126.0702283.00001181.0387677-.0314528.0702244-.0702126.0702205z" fill="#000000" data-original="#000000" class=""></path><path id="_341061832" d="m4.37545 3.30098c-.259929 0-.471343-.211524-.471343-.471453l.00001181-.664575c0-.0387717.0314449-.0702244.0702126-.0702244.0387717 0 .0702244.0314528.0702244.0702283l.00001575.664571c0 .182508.148362.331008.33087.331008.0538937-.00000394.105217-.0126811.152886-.0376732.109858-.0577953.178122-.170193.178122-.293335l.00000394-.664575c0-.0387717.0314528-.0702244.0702244-.0702244.0387717 0 .0702244.0314528.0702244.0702283v.664571c0 .175563-.0970512.33552-.253224.417571-.0670551.0352283-.142524.0538858-.218228.0538819z" fill="#000000" data-original="#000000" class=""></path><path id="_341062000" d="m3.17761 3.64784c-.00597638 0-.0120787-.00084646-.0181772-.00243307-.0374252-.010122-.0597362-.0485276-.0496181-.0860748l.471343-1.7594c.010122-.0374331.0486378-.0596181.0860669-.0496181.0374291.00999213.0597362.0485236.049622.0859528l-.471331 1.75939c-.00841732.0314567-.0368228.0521811-.0679055.0521811z" fill="#000000" data-original="#000000" class=""></path></g></g></g></svg>