<svg xmlns="http://www.w3.org/2000/svg" version="1.1" xmlns:xlink="http://www.w3.org/1999/xlink" xmlns:svgjs="http://svgjs.com/svgjs" width="512" height="512" x="0" y="0" viewBox="0 0 512 512" style="enable-background:new 0 0 512 512" xml:space="preserve"><g>
<polygon xmlns="http://www.w3.org/2000/svg" style="" points="341.798,441.102 221.862,441.102 237.087,366.972 326.556,366.972 " fill="#e1effa" data-original="#e1effa"></polygon>
<polygon xmlns="http://www.w3.org/2000/svg" style="" points="341.798,441.102 326.556,366.972 237.087,366.972 311.227,441.102 " fill="#b6d4ed" data-original="#b6d4ed"></polygon>
<rect xmlns="http://www.w3.org/2000/svg" x="189.747" y="441.11" style="" width="184.146" height="8.986" fill="#e1effa" data-original="#e1effa"></rect>
<path xmlns="http://www.w3.org/2000/svg" style="" d="M62.904,61.905c-6.136,0-11.172,5.048-11.172,11.19V355.77c0,6.167,5.033,11.205,11.172,11.205  h437.878c6.157,0,11.218-5.038,11.218-11.205V73.094c0-6.141-5.061-11.19-11.218-11.19H62.904z" fill="#34495e" data-original="#34495e"></path>
<rect xmlns="http://www.w3.org/2000/svg" x="74.982" y="85.142" style="" width="413.747" height="258.56" fill="#ffffff" data-original="#ffffff"></rect>
<rect xmlns="http://www.w3.org/2000/svg" x="92.186" y="99.619" style="" width="114.468" height="34.307" fill="#ff8e31" data-original="#ff8e31"></rect>
<g xmlns="http://www.w3.org/2000/svg">
	<rect x="224.64" y="99.619" style="" width="249.626" height="34.307" fill="#e1effa" data-original="#e1effa"></rect>
	<rect x="89.457" y="293.193" style="" width="384.794" height="11.343" fill="#e1effa" data-original="#e1effa"></rect>
	<rect x="89.457" y="317.948" style="" width="384.794" height="11.29" fill="#e1effa" data-original="#e1effa"></rect>
</g>
<g xmlns="http://www.w3.org/2000/svg">
	<rect x="89.457" y="214.499" style="" width="114.468" height="65.306" fill="#d0e070" data-original="#d0e070"></rect>
	<rect x="224.64" y="214.499" style="" width="114.458" height="65.306" fill="#d0e070" data-original="#d0e070"></rect>
	<rect x="359.782" y="214.499" style="" width="114.481" height="65.306" fill="#d0e070" data-original="#d0e070"></rect>
</g>
<rect xmlns="http://www.w3.org/2000/svg" x="89.457" y="147.35" style="" width="384.794" height="53.727" fill="#b8d1e6" data-original="#b8d1e6"></rect>
<path xmlns="http://www.w3.org/2000/svg" style="" d="M286.208,366.982H62.886c-6.118,0-11.139-5.066-11.139-11.233v-151.67H74.98v139.62h187.95  L286.208,366.982z" fill="#2e445c" data-original="#2e445c"></path>
<path xmlns="http://www.w3.org/2000/svg" style="" d="M262.927,343.704H74.98V204.079h39.483c5.688,0,10.898,2.15,14.723,5.88  c0.381,0.238,0.717,0.622,1.052,1.052l3.489,3.489H89.464v65.3h109.558l13.384,13.384H89.462v11.377H223.78l13.384,13.384H89.462  v11.282h158.984L262.927,343.704z" fill="#e1effa" data-original="#e1effa"></path>
<polygon xmlns="http://www.w3.org/2000/svg" style="" points="199.02,279.797 89.462,279.797 89.462,214.501 133.724,214.501 " fill="#b8d26e" data-original="#b8d26e"></polygon>
<g xmlns="http://www.w3.org/2000/svg">
	<polygon style="" points="223.78,304.557 89.462,304.557 89.462,293.18 212.403,293.18  " fill="#c7e0f4" data-original="#c7e0f4"></polygon>
	<polygon style="" points="248.445,329.22 89.462,329.22 89.462,317.94 237.164,317.94  " fill="#c7e0f4" data-original="#c7e0f4"></polygon>
</g>
<path xmlns="http://www.w3.org/2000/svg" style="" d="M16.806,450.083C7.572,450.083,0,442.525,0,433.253V225.714c0-9.244,7.572-16.824,16.806-16.824  h97.623c9.226,0,16.806,7.575,16.806,16.824v207.542c0,9.267-7.58,16.829-16.806,16.829H16.806V450.083z" fill="#34495e" data-original="#34495e"></path>
<g xmlns="http://www.w3.org/2000/svg">
	<path style="" d="M80.161,432.708c0,2.204-1.774,4.014-4.006,4.014H55.076c-2.189,0-4.019-1.812-4.019-4.014v-1.692   c0-2.189,1.83-4.024,4.019-4.024h21.079c2.237,0,4.006,1.836,4.006,4.024C80.161,431.016,80.161,432.708,80.161,432.708z" fill="#283a4d" data-original="#283a4d"></path>
	<path style="" d="M70.477,227.107c0,2.678-2.143,4.851-4.833,4.851c-2.716,0-4.867-2.176-4.867-4.851   c0-2.662,2.15-4.841,4.867-4.841C68.329,222.263,70.477,224.444,70.477,227.107z" fill="#283a4d" data-original="#283a4d"></path>
</g>
<path xmlns="http://www.w3.org/2000/svg" style="" d="M67.896,227.107c0,1.267-0.986,2.281-2.255,2.281c-1.262,0-2.299-1.014-2.299-2.281  c0-1.262,1.042-2.276,2.299-2.276C66.916,224.831,67.896,225.844,67.896,227.107z" fill="#5d6d7e" data-original="#5d6d7e"></path>
<rect xmlns="http://www.w3.org/2000/svg" x="9.531" y="245.372" style="" width="112.187" height="168.284" fill="#ffffff" data-original="#ffffff"></rect>
<rect xmlns="http://www.w3.org/2000/svg" x="18.173" y="253.974" style="" width="94.95" height="14.513" fill="#ff8e31" data-original="#ff8e31"></rect>
<g xmlns="http://www.w3.org/2000/svg">
	<rect x="18.173" y="389.782" style="" width="94.95" height="4.756" fill="#e1effa" data-original="#e1effa"></rect>
	<rect x="18.173" y="400.252" style="" width="94.95" height="4.756" fill="#e1effa" data-original="#e1effa"></rect>
</g>
<rect xmlns="http://www.w3.org/2000/svg" x="18.173" y="309.731" style="" width="94.95" height="74.368" fill="#d0e070" data-original="#d0e070"></rect>
<rect xmlns="http://www.w3.org/2000/svg" x="18.173" y="274.147" style="" width="94.95" height="29.926" fill="#b8d1e6" data-original="#b8d1e6"></rect>
<g xmlns="http://www.w3.org/2000/svg">
</g>
<g xmlns="http://www.w3.org/2000/svg">
</g>
<g xmlns="http://www.w3.org/2000/svg">
</g>
<g xmlns="http://www.w3.org/2000/svg">
</g>
<g xmlns="http://www.w3.org/2000/svg">
</g>
<g xmlns="http://www.w3.org/2000/svg">
</g>
<g xmlns="http://www.w3.org/2000/svg">
</g>
<g xmlns="http://www.w3.org/2000/svg">
</g>
<g xmlns="http://www.w3.org/2000/svg">
</g>
<g xmlns="http://www.w3.org/2000/svg">
</g>
<g xmlns="http://www.w3.org/2000/svg">
</g>
<g xmlns="http://www.w3.org/2000/svg">
</g>
<g xmlns="http://www.w3.org/2000/svg">
</g>
<g xmlns="http://www.w3.org/2000/svg">
</g>
<g xmlns="http://www.w3.org/2000/svg">
</g>
</g></svg>